<?xml version="1.0" encoding="UTF-8" standalone="no"?>
<!-- Created with Inkscape (http://www.inkscape.org/) -->

<svg
   version="1.1"
   id="svg9"
   width="754.76666"
   height="175.7"
   viewBox="0 0 754.76667 175.7"
   sodipodi:docname="Table_description.svg"
   inkscape:version="1.2 (dc2aedaf03, 2022-05-15)"
   xmlns:inkscape="http://www.inkscape.org/namespaces/inkscape"
   xmlns:sodipodi="http://sodipodi.sourceforge.net/DTD/sodipodi-0.dtd"
   xmlns="http://www.w3.org/2000/svg"
   xmlns:svg="http://www.w3.org/2000/svg">
  <defs
     id="defs13">
    <clipPath
       clipPathUnits="userSpaceOnUse"
       id="clipPath25">
      <path
         d="M 0,0.028 H 595.275 V 841.889 H 0 Z"
         clip-rule="evenodd"
         id="path23" />
    </clipPath>
  </defs>
  <sodipodi:namedview
     id="namedview11"
     pagecolor="#ffffff"
     bordercolor="#111111"
     borderopacity="1"
     inkscape:showpageshadow="0"
     inkscape:pageopacity="0"
     inkscape:pagecheckerboard="1"
     inkscape:deskcolor="#d1d1d1"
     showgrid="false"
     inkscape:zoom="0.66101295"
     inkscape:cx="367.61761"
     inkscape:cy="364.59195"
     inkscape:window-width="1920"
     inkscape:window-height="974"
     inkscape:window-x="-11"
     inkscape:window-y="-11"
     inkscape:window-maximized="1"
     inkscape:current-layer="g17">
    <inkscape:page
       x="0"
       y="0"
       id="page15"
       width="754.76666"
       height="175.7" />
  </sodipodi:namedview>
  <g
     id="g17"
     inkscape:groupmode="layer"
     inkscape:label="Page 1"
     transform="matrix(1.3333333,0,0,-1.3333333,-28.299999,1046.9186)">
    <g
       id="g19">
      <g
         id="g21"
         clip-path="url(#clipPath25)">
        <path
           d="m 21.6,770.639 h 73.75 v 14.55 H 21.6 Z"
           style="fill:#b2b2b2;fill-opacity:1;fill-rule:evenodd;stroke:none"
           id="path27" />
        <path
           d="m 95.4,770.639 h 491.45 v 14.55 H 95.4 Z"
           style="fill:#b2b2b2;fill-opacity:1;fill-rule:evenodd;stroke:none"
           id="path29" />
        <path
           d="m 21.6,741.539 h 73.75 v 14.55 H 21.6 Z"
           style="fill:#eeeeee;fill-opacity:1;fill-rule:evenodd;stroke:none"
           id="path31" />
        <path
           d="m 95.4,741.539 h 491.45 v 14.55 H 95.4 Z"
           style="fill:#eeeeee;fill-opacity:1;fill-rule:evenodd;stroke:none"
           id="path33" />
        <path
           d="m 21.6,712.439 h 73.75 v 14.55 H 21.6 Z"
           style="fill:#eeeeee;fill-opacity:1;fill-rule:evenodd;stroke:none"
           id="path35" />
        <path
           d="m 95.4,712.439 h 491.45 v 14.55 H 95.4 Z"
           style="fill:#eeeeee;fill-opacity:1;fill-rule:evenodd;stroke:none"
           id="path37" />
        <path
           d="m 21.6,683.339 h 73.75 v 14.55 H 21.6 Z"
           style="fill:#eeeeee;fill-opacity:1;fill-rule:evenodd;stroke:none"
           id="path39" />
        <path
           d="m 95.4,683.339 h 491.45 v 14.55 H 95.4 Z"
           style="fill:#eeeeee;fill-opacity:1;fill-rule:evenodd;stroke:none"
           id="path41" />
        <path
           d="m 21.6,654.239 h 73.75 v 14.55 H 21.6 Z"
           style="fill:#eeeeee;fill-opacity:1;fill-rule:evenodd;stroke:none"
           id="path43" />
        <path
           d="m 95.4,654.239 h 491.45 v 14.55 H 95.4 Z"
           style="fill:#eeeeee;fill-opacity:1;fill-rule:evenodd;stroke:none"
           id="path45" />
        <g
           id="g47">
          <path
             d="M 21.25,784.789 H 587.3"
             style="fill:none;stroke:#666666;stroke-width:0.75;stroke-linecap:butt;stroke-linejoin:round;stroke-miterlimit:10;stroke-dasharray:none;stroke-opacity:1"
             id="path49" />
        </g>
        <g
           id="g51">
          <path
             d="M 21.25,770.189 H 587.3"
             style="fill:none;stroke:#666666;stroke-width:0.75;stroke-linecap:butt;stroke-linejoin:round;stroke-miterlimit:10;stroke-dasharray:none;stroke-opacity:1"
             id="path53" />
        </g>
        <g
           id="g55">
          <path
             d="M 21.25,755.689 H 587.3"
             style="fill:none;stroke:#666666;stroke-width:0.75;stroke-linecap:butt;stroke-linejoin:round;stroke-miterlimit:10;stroke-dasharray:none;stroke-opacity:1"
             id="path57" />
        </g>
        <g
           id="g59">
          <path
             d="M 21.25,741.089 H 587.3"
             style="fill:none;stroke:#666666;stroke-width:0.75;stroke-linecap:butt;stroke-linejoin:round;stroke-miterlimit:10;stroke-dasharray:none;stroke-opacity:1"
             id="path61" />
        </g>
        <g
           id="g63">
          <path
             d="M 21.25,726.589 H 587.3"
             style="fill:none;stroke:#666666;stroke-width:0.75;stroke-linecap:butt;stroke-linejoin:round;stroke-miterlimit:10;stroke-dasharray:none;stroke-opacity:1"
             id="path65" />
        </g>
        <g
           id="g67">
          <path
             d="M 21.25,711.989 H 587.3"
             style="fill:none;stroke:#666666;stroke-width:0.75;stroke-linecap:butt;stroke-linejoin:round;stroke-miterlimit:10;stroke-dasharray:none;stroke-opacity:1"
             id="path69" />
        </g>
        <g
           id="g71">
          <path
             d="M 21.25,697.489 H 587.3"
             style="fill:none;stroke:#666666;stroke-width:0.75;stroke-linecap:butt;stroke-linejoin:round;stroke-miterlimit:10;stroke-dasharray:none;stroke-opacity:1"
             id="path73" />
        </g>
        <g
           id="g75">
          <path
             d="M 21.25,682.889 H 587.3"
             style="fill:none;stroke:#666666;stroke-width:0.75;stroke-linecap:butt;stroke-linejoin:round;stroke-miterlimit:10;stroke-dasharray:none;stroke-opacity:1"
             id="path77" />
        </g>
        <g
           id="g79">
          <path
             d="M 21.25,668.389 H 587.3"
             style="fill:none;stroke:#666666;stroke-width:0.75;stroke-linecap:butt;stroke-linejoin:round;stroke-miterlimit:10;stroke-dasharray:none;stroke-opacity:1"
             id="path81" />
        </g>
        <g
           id="g83">
          <path
             d="M 21.25,653.789 H 587.3"
             style="fill:none;stroke:#666666;stroke-width:0.75;stroke-linecap:butt;stroke-linejoin:round;stroke-miterlimit:10;stroke-dasharray:none;stroke-opacity:1"
             id="path85" />
        </g>
        <g
           id="g87">
          <path
             d="M 21.6,785.189 V 653.439"
             style="fill:none;stroke:#666666;stroke-width:0.75;stroke-linecap:butt;stroke-linejoin:round;stroke-miterlimit:10;stroke-dasharray:none;stroke-opacity:1"
             id="path89" />
        </g>
        <g
           id="g91">
          <path
             d="M 95.4,785.189 V 653.439"
             style="fill:none;stroke:#666666;stroke-width:0.75;stroke-linecap:butt;stroke-linejoin:round;stroke-miterlimit:10;stroke-dasharray:none;stroke-opacity:1"
             id="path93" />
        </g>
        <g
           id="g95">
          <path
             d="M 586.9,785.189 V 653.439"
             style="fill:none;stroke:#666666;stroke-width:0.75;stroke-linecap:butt;stroke-linejoin:round;stroke-miterlimit:10;stroke-dasharray:none;stroke-opacity:1"
             id="path97" />
        </g>
        <g
           id="g99">
          <text
             xml:space="preserve"
             transform="matrix(1,0,0,-1,25,773.189)"
             style="font-variant:normal;font-weight:normal;font-size:12px;font-family:'Liberation Sans';-inkscape-font-specification:LiberationSans;writing-mode:lr-tb;fill:#000000;fill-opacity:1;fill-rule:nonzero;stroke:none"
             id="text103"><tspan
               x="0 8.6879997 15.288 17.976 24.66 34.655998"
               y="0"
               sodipodi:role="line"
               id="tspan101">Column</tspan></text>
        </g>
        <g
           id="g105">
          <text
             xml:space="preserve"
             transform="matrix(1,0,0,-1,98.8,773.189)"
             style="font-variant:normal;font-weight:normal;font-size:12px;font-family:'Liberation Sans';-inkscape-font-specification:LiberationSans;writing-mode:lr-tb;fill:#000000;fill-opacity:1;fill-rule:nonzero;stroke:none"
             id="text109"><tspan
               x="0 8.6879997 15.372 21.372 27.372 31.271999 33.959999 40.644001 43.944 46.632 53.231998"
               y="0"
               sodipodi:role="line"
               id="tspan107">Description</tspan></text>
        </g>
        <g
           id="g111">
          <text
             xml:space="preserve"
             transform="matrix(1,0,0,-1,25,758.589)"
             style="font-variant:normal;font-weight:normal;font-size:12px;font-family:'Liberation Sans';-inkscape-font-specification:LiberationSans;writing-mode:lr-tb;fill:#000000;fill-opacity:1;fill-rule:nonzero;stroke:none"
             id="text115"><tspan
               x="0 6.684 13.284"
               y="0"
               sodipodi:role="line"
               id="tspan113">age</tspan></text>
        </g>
        <g
           id="g117">
          <text
             xml:space="preserve"
             transform="matrix(1,0,0,-1,98.8,758.589)"
             style="font-variant:normal;font-weight:normal;font-size:12px;font-family:'Liberation Sans';-inkscape-font-specification:LiberationSans;writing-mode:lr-tb;fill:#000000;fill-opacity:1;fill-rule:nonzero;stroke:none"
             id="text121"><tspan
               x="0 7.9920001 14.676 21.360001 24.66 31.344 34.644001 37.944 41.243999 47.928001 54.612 57.995998 64.596001 71.279999 74.580002 77.267998 83.952003 90.636002 93.935997 97.236 99.924004 106.608 109.908 115.908 122.508 129.192 133.188"
               y="0"
               sodipodi:role="line"
               id="tspan119">Age of the patient in years</tspan></text>
        </g>
        <g
           id="g123">
          <text
             xml:space="preserve"
             transform="matrix(1,0,0,-1,25,744.089)"
             style="font-variant:normal;font-weight:normal;font-size:12px;font-family:'Liberation Sans';-inkscape-font-specification:LiberationSans;writing-mode:lr-tb;fill:#000000;fill-opacity:1;fill-rule:nonzero;stroke:none"
             id="text127"><tspan
               x="0 6.684 10.68 13.284 19.968"
               y="0"
               sodipodi:role="line"
               id="tspan125">erihc</tspan></text>
        </g>
        <g
           id="g129">
          <text
             xml:space="preserve"
             transform="matrix(1,0,0,-1,98.8,744.089)"
             style="font-variant:normal;font-weight:normal;font-size:12px;font-family:'Liberation Sans';-inkscape-font-specification:LiberationSans;writing-mode:lr-tb;fill:#000000;fill-opacity:1;fill-rule:nonzero;stroke:none"
             id="text133"><tspan
               x="0 3.3 13.296 23.292 29.976 36.66 43.259998 49.944 52.632 58.632 61.931999 68.615997 74.615997 81.300003 87.984001 97.884003 100.572 106.572 109.872 113.868 119.868 123.96 130.56 136.56 142.56 149.244 155.244 161.244 171.24001 177.924 184.608 187.908 191.20799 197.892 201.192 204.576 211.25999 217.25999 220.56 224.556 231.15601 237.84 244.524 251.20799 254.508 258.504 265.18799 271.18799 277.78799 284.47198 287.772 294.45599 298.452 304.53601 307.836 311.832 320.51999 323.82001 330.81601 334.116 342.80399 349.40399 356.08801 362.772 366.07199 368.76001 374.76001 381.444 384.74399 388.12799 396.12 399.42001 406.41599 409.716 417.70801 424.392 430.392 433.07999 436.38 439.06799 445.06799 451.75201"
               y="0"
               sodipodi:role="line"
               id="tspan131">Immunohistochemistry-assessment of estrogen receptors (N = Negative, P = Positive)</tspan></text>
        </g>
        <g
           id="g135">
          <text
             xml:space="preserve"
             transform="matrix(1,0,0,-1,25,729.489)"
             style="font-variant:normal;font-weight:normal;font-size:12px;font-family:'Liberation Sans';-inkscape-font-specification:LiberationSans;writing-mode:lr-tb;fill:#000000;fill-opacity:1;fill-rule:nonzero;stroke:none"
             id="text139"><tspan
               x="0 6.684 10.68 13.284 19.968"
               y="0"
               sodipodi:role="line"
               id="tspan137">prihc</tspan></text>
        </g>
        <g
           id="g141">
          <text
             xml:space="preserve"
             transform="matrix(1,0,0,-1,98.8,729.489)"
             style="font-variant:normal;font-weight:normal;font-size:12px;font-family:'Liberation Sans';-inkscape-font-specification:LiberationSans;writing-mode:lr-tb;fill:#000000;fill-opacity:1;fill-rule:nonzero;stroke:none"
             id="text145"><tspan
               x="0 3.3 13.296 23.292 29.976 36.66 43.259998 49.944 52.632 58.632 61.931999 68.615997 74.615997 81.300003 87.984001 97.884003 100.572 106.572 109.872 113.868 119.868 123.96 130.56 136.56 142.56 149.244 155.244 161.244 171.24001 177.924 184.608 187.908 191.20799 197.892 201.192 204.576 211.25999 215.16 221.84399 228.528 235.21201 241.21201 244.51199 251.196 255.192 261.79199 268.47601 275.16 278.45999 282.45599 289.14001 295.14001 301.82401 308.508 311.80801 318.492 322.48801 325.78799 329.784 338.47198 341.772 348.76801 352.15201 360.75601 367.44 374.04001 380.724 384.02399 386.71201 392.71201 399.396 402.78 406.07999 414.07199 417.37201 424.36801 427.75201 435.64801 442.332 448.332 451.01999 454.32001 457.008 463.008 469.69199"
               y="0"
               sodipodi:role="line"
               id="tspan143">Immunohistochemistry-assessment of progesterone receptor (N = Negative, P = Positive)</tspan></text>
        </g>
        <g
           id="g147">
          <text
             xml:space="preserve"
             transform="matrix(1,0,0,-1,25,714.989)"
             style="font-variant:normal;font-weight:normal;font-size:12px;font-family:'Liberation Sans';-inkscape-font-specification:LiberationSans;writing-mode:lr-tb;fill:#000000;fill-opacity:1;fill-rule:nonzero;stroke:none"
             id="text151"><tspan
               x="0 6.684 13.368 17.268"
               y="0"
               sodipodi:role="line"
               id="tspan149">her2</tspan></text>
        </g>
        <g
           id="g153">
          <text
             xml:space="preserve"
             transform="matrix(1,0,0,-1,98.8,714.989)"
             style="font-variant:normal;font-weight:normal;font-size:12px;font-family:'Liberation Sans';-inkscape-font-specification:LiberationSans;writing-mode:lr-tb;fill:#000000;fill-opacity:1;fill-rule:nonzero;stroke:none"
             id="text157"><tspan
               x="0 8.6879997 16.584 25.271999 31.955999 35.34 41.939999 47.939999 54.624001 58.619999 65.304001 71.304001 77.208 79.896004 86.580002 93.264 96.564003 100.56 109.248 112.548 119.544 122.928 129.528 136.21201 140.20799 150.20399 156.888 159.576 162.87601 166.17599 174.168 177.552 184.548 187.84801 194.532 200.532 207.216 211.116 217.8 223.8 230.48399 234.48 241.164 247.164 253.164 259.76401 266.448"
               y="0"
               sodipodi:role="line"
               id="tspan155">HER2 expression (N = normal, P = overexpressed)</tspan></text>
        </g>
        <g
           id="g159">
          <text
             xml:space="preserve"
             transform="matrix(1,0,0,-1,25,700.389)"
             style="font-variant:normal;font-weight:normal;font-size:12px;font-family:'Liberation Sans';-inkscape-font-specification:LiberationSans;writing-mode:lr-tb;fill:#000000;fill-opacity:1;fill-rule:nonzero;stroke:none"
             id="text163"><tspan
               x="0 3.3 9.3000002 12.6 19.284 25.968"
               y="0"
               sodipodi:role="line"
               id="tspan161">tstage</tspan></text>
        </g>
        <g
           id="g165">
          <text
             xml:space="preserve"
             transform="matrix(1,0,0,-1,98.8,700.389)"
             style="font-variant:normal;font-weight:normal;font-size:12px;font-family:'Liberation Sans';-inkscape-font-specification:LiberationSans;writing-mode:lr-tb;fill:#000000;fill-opacity:1;fill-rule:nonzero;stroke:none"
             id="text169"><tspan
               x="0 8.6879997 11.292 17.292 23.976 30.66 36.66 43.344002 46.644001 52.644001 55.944 62.627998 69.311996 75.996002 79.295998 83.292 89.975998 93.276001 96.575996 103.26 106.56 113.244"
               y="0"
               sodipodi:role="line"
               id="tspan167">Disease stage (1 to 4)</tspan></text>
        </g>
        <g
           id="g171">
          <text
             xml:space="preserve"
             transform="matrix(1,0,0,-1,25,685.889)"
             style="font-variant:normal;font-weight:normal;font-size:12px;font-family:'Liberation Sans';-inkscape-font-specification:LiberationSans;writing-mode:lr-tb;fill:#000000;fill-opacity:1;fill-rule:nonzero;stroke:none"
             id="text175"><tspan
               x="0 6.684 13.284 19.968 26.652 29.34 35.34 38.639999 45.324001 48.624001 55.307999"
               y="0"
               sodipodi:role="line"
               id="tspan173">nodalstatus</tspan></text>
        </g>
        <g
           id="g177">
          <text
             xml:space="preserve"
             transform="matrix(1,0,0,-1,98.8,685.889)"
             style="font-variant:normal;font-weight:normal;font-size:12px;font-family:'Liberation Sans';-inkscape-font-specification:LiberationSans;writing-mode:lr-tb;fill:#000000;fill-opacity:1;fill-rule:nonzero;stroke:none"
             id="text181"><tspan
               x="0 7.9920001 11.292 14.592 21.275999 27.275999 30.576 37.259998 43.944 47.327999 49.931999 55.931999 65.928001 72.612 79.295998 82.596001 89.279999 95.879997 102.564 109.248 115.248 118.632 122.532 129.216 132.60001 135.89999 142.584 145.884 152.56799"
               y="0"
               sodipodi:role="line"
               id="tspan179">Affected lymph nodes (0 to 3)</tspan></text>
        </g>
        <g
           id="g183">
          <text
             xml:space="preserve"
             transform="matrix(1,0,0,-1,25,671.289)"
             style="font-variant:normal;font-weight:normal;font-size:12px;font-family:'Liberation Sans';-inkscape-font-specification:LiberationSans;writing-mode:lr-tb;fill:#000000;fill-opacity:1;fill-rule:nonzero;stroke:none"
             id="text187"><tspan
               x="0 6.684 10.68 17.280001 23.964001"
               y="0"
               sodipodi:role="line"
               id="tspan185">grade</tspan></text>
        </g>
        <g
           id="g189">
          <text
             xml:space="preserve"
             transform="matrix(1,0,0,-1,98.8,671.289)"
             style="font-variant:normal;font-weight:normal;font-size:12px;font-family:'Liberation Sans';-inkscape-font-specification:LiberationSans;writing-mode:lr-tb;fill:#000000;fill-opacity:1;fill-rule:nonzero;stroke:none"
             id="text193"><tspan
               x="0 7.296 13.98 23.976 30.66 34.655998 37.956001 44.639999 48.636002 55.32 61.919998 68.603996 71.987999 75.888 82.571999 85.956001 89.255997 95.940002 99.239998 105.924"
               y="0"
               sodipodi:role="line"
               id="tspan191">Tumor grade (1 to 3)</tspan></text>
        </g>
        <g
           id="g195">
          <text
             xml:space="preserve"
             transform="matrix(1,0,0,-1,25,656.789)"
             style="font-variant:normal;font-weight:normal;font-size:12px;font-family:'Liberation Sans';-inkscape-font-specification:LiberationSans;writing-mode:lr-tb;fill:#000000;fill-opacity:1;fill-rule:nonzero;stroke:none"
             id="text199"><tspan
               x="0 6.684 12.684"
               y="0"
               sodipodi:role="line"
               id="tspan197">pcr</tspan></text>
        </g>
        <g
           id="g201">
          <text
             xml:space="preserve"
             transform="matrix(1,0,0,-1,98.8,656.789)"
             style="font-variant:normal;font-weight:normal;font-size:12px;font-family:'Liberation Sans';-inkscape-font-specification:LiberationSans;writing-mode:lr-tb;fill:#000000;fill-opacity:1;fill-rule:nonzero;stroke:none"
             id="text205"><tspan
               x="0 7.9920001 14.676 17.976 24.66 31.26 33.948002 40.632 47.316002 50.004002 55.908001 62.591999 65.279999 68.580002 72.575996 79.260002 85.260002 91.944 98.543999 105.228 111.228 117.912 121.212 127.212 130.51199 137.196 140.496 147.17999"
               y="0"
               sodipodi:role="line"
               id="tspan203">Pathological response status</tspan></text>
        </g>
        <g
           id="g207">
          <text
             xml:space="preserve"
             transform="matrix(1,0,0,-1,255.6,656.789)"
             style="font-variant:normal;font-weight:normal;font-size:12px;font-family:'Liberation Sans';-inkscape-font-specification:LiberationSans;writing-mode:lr-tb;fill:#000000;fill-opacity:1;fill-rule:nonzero;stroke:none"
             id="text211"><tspan
               x="0 3.9960001 10.68 13.98 20.976 24.360001 34.259998 40.944 44.243999 50.928001 56.928001 60.228001 66.912003 72.912003 75.599998 81.599998 84.984001 88.283997 94.968002 98.267998 105.264 108.564 117.252 123.936"
               y="0"
               sodipodi:role="line"
               id="tspan209">(1 = Metastasis, 0 = No)</tspan></text>
        </g>
      </g>
    </g>
  </g>
</svg>
